<?xml version="1.0" encoding="UTF-8"?>
<svg id="Layer_1" data-name="Layer 1" xmlns="http://www.w3.org/2000/svg" viewBox="0 0 1050.97 1050.97">
  <defs>
    <style>
      .cls-1 {
        fill: #ed1c24;
        font-family: Sloop-ScriptBoldTwo, Sloop;
        font-size: 44px;
        font-weight: 700;
      }
    </style>
  </defs>
  <text class="cls-1" transform="translate(304.17 89.48) rotate(-23.76)"><tspan x="0" y="0">W</tspan></text>
  <text class="cls-1" transform="translate(353.75 68.43) rotate(-20.07)"><tspan x="0" y="0">i</tspan></text>
  <text class="cls-1" transform="translate(362.01 65.35) rotate(-18.52)"><tspan x="0" y="0">ll</tspan></text>
  <text class="cls-1" transform="translate(378.45 59.9) rotate(-16.97)"><tspan x="0" y="0"> </tspan></text>
  <text class="cls-1" transform="translate(386.67 56.86) rotate(-13.8)"><tspan x="0" y="0">Y</tspan></text>
  <text class="cls-1" transform="translate(430.27 46.62) rotate(-10.37)"><tspan x="0" y="0">o</tspan></text>
  <text class="cls-1" transform="translate(443.68 44.14) rotate(-8.61)"><tspan x="0" y="0">u</tspan></text>
  <text class="cls-1" transform="translate(459.69 41.76) rotate(-7.14)"><tspan x="0" y="0"> </tspan></text>
  <text class="cls-1" transform="translate(468.3 40.1) rotate(-3.82)"><tspan x="0" y="0">B</tspan></text>
  <text class="cls-1" transform="translate(516.31 37.49) rotate(-.93)"><tspan x="0" y="0">e</tspan></text>
  <text class="cls-1" transform="translate(527.83 37.36) rotate(.93)"><tspan x="0" y="0"> </tspan></text>
  <text class="cls-1" transform="translate(536.76 37.35) rotate(2.8)"><tspan x="0" y="0">m</tspan></text>
  <text class="cls-1" transform="translate(562.32 38.69) rotate(5.19)"><tspan x="0" y="0">y</tspan></text>
  <text class="cls-1" transform="translate(577.82 40.14) rotate(6.62)"><tspan x="0" y="0"> </tspan></text>
  <text class="cls-1" transform="translate(586.61 40.8) rotate(9.37)"><tspan x="0" y="0">V</tspan></text>
  <text class="cls-1" transform="translate(624.1 47.28) rotate(12.6)"><tspan x="0" y="0">a</tspan></text>
  <text class="cls-1" transform="translate(640.52 51) rotate(14.09)"><tspan x="0" y="0">l</tspan></text>
  <text class="cls-1" transform="translate(648.75 53.05) rotate(15.28)"><tspan x="0" y="0">e</tspan></text>
  <text class="cls-1" transform="translate(659.87 56.04) rotate(16.97)"><tspan x="0" y="0">n</tspan></text>
  <text class="cls-1" transform="translate(676.24 61.09) rotate(18.54)"><tspan x="0" y="0">t</tspan></text>
  <text class="cls-1" transform="translate(685.13 64.07) rotate(19.62)"><tspan x="0" y="0">i</tspan></text>
  <text class="cls-1" transform="translate(693.47 66.98) rotate(21.15)"><tspan x="0" y="0">n</tspan></text>
  <text class="cls-1" transform="translate(709.42 73.19) rotate(22.84)"><tspan x="0" y="0">e</tspan></text>
  <text class="cls-1" transform="translate(720.07 77.66) rotate(24.4)"><tspan x="0" y="0">?</tspan></text>
  <text class="cls-1" transform="translate(733.56 83.81) rotate(25.8)"><tspan x="0" y="0">	</tspan></text>
  <text class="cls-1" transform="translate(748.89 91.38) rotate(27.82)"><tspan x="0" y="0">	</tspan></text>
  <text class="cls-1" transform="translate(779.79 108.76) rotate(31.99)"><tspan x="0" y="0">	</tspan></text>
  <text class="cls-1" transform="translate(809.33 128.33) rotate(36.14)"><tspan x="0" y="0">	</tspan></text>
  <text class="cls-1" transform="translate(837.4 150.01) rotate(40.28)"><tspan x="0" y="0">	</tspan></text>
  <text class="cls-1" transform="translate(864.11 172.91) rotate(47.02)"><tspan x="0" y="0">W</tspan></text>
  <text class="cls-1" transform="translate(900.31 212.79) rotate(50.66)"><tspan x="0" y="0">i</tspan></text>
  <text class="cls-1" transform="translate(905.95 219.59) rotate(52.19)"><tspan x="0" y="0">ll</tspan></text>
  <text class="cls-1" transform="translate(916.53 233.3) rotate(53.72)"><tspan x="0" y="0"> </tspan></text>
  <text class="cls-1" transform="translate(922.13 240.07) rotate(56.86)"><tspan x="0" y="0">Y</tspan></text>
  <text class="cls-1" transform="translate(946.22 277.81) rotate(60.28)"><tspan x="0" y="0">o</tspan></text>
  <text class="cls-1" transform="translate(953 289.64) rotate(62.03)"><tspan x="0" y="0">u</tspan></text>
  <text class="cls-1" transform="translate(960.56 303.97) rotate(63.51)"><tspan x="0" y="0"> </tspan></text>
  <text class="cls-1" transform="translate(964.98 311.51) rotate(66.86)"><tspan x="0" y="0">B</tspan></text>
  <text class="cls-1" transform="translate(983.35 355.9) rotate(70.36)"><tspan x="0" y="0">e</tspan></text>
  <text class="cls-1" transform="translate(987.23 366.81) rotate(71.58)"><tspan x="0" y="0"> </tspan></text>
  <text class="cls-1" transform="translate(990.19 375.21) rotate(73.63)"><tspan x="0" y="0">m</tspan></text>
  <text class="cls-1" transform="translate(997.31 399.79) rotate(76.05)"><tspan x="0" y="0">y</tspan></text>
  <text class="cls-1" transform="translate(1001.02 414.9) rotate(77.5)"><tspan x="0" y="0"> </tspan></text>
  <text class="cls-1" transform="translate(1003.28 423.42) rotate(80.27)"><tspan x="0" y="0">V</tspan></text>
  <text class="cls-1" transform="translate(1009.43 460.98) rotate(83.48)"><tspan x="0" y="0">a</tspan></text>
  <text class="cls-1" transform="translate(1011.29 477.71) rotate(84.96)"><tspan x="0" y="0">l</tspan></text>
  <text class="cls-1" transform="translate(1012.05 486.14) rotate(86.12)"><tspan x="0" y="0">e</tspan></text>
  <text class="cls-1" transform="translate(1012.88 497.66) rotate(87.79)"><tspan x="0" y="0">n</tspan></text>
  <text class="cls-1" transform="translate(1013.47 514.82) rotate(89.07)"><tspan x="0" y="0">t</tspan></text>
  <text class="cls-1" transform="translate(1013.64 524.08) rotate(90.93)"><tspan x="0" y="0">i</tspan></text>
  <text class="cls-1" transform="translate(1013.6 532.97) rotate(91.86)"><tspan x="0" y="0">n</tspan></text>
  <text class="cls-1" transform="translate(1013 550.09) rotate(93.52)"><tspan x="0" y="0">e</tspan></text>
  <text class="cls-1" transform="translate(1012.32 561.61) rotate(95.06)"><tspan x="0" y="0">?</tspan></text>
  <text class="cls-1" transform="translate(1010.98 576.38) rotate(96.45)"><tspan x="0" y="0">	</tspan></text>
  <text class="cls-1" transform="translate(1008.92 593.35) rotate(98.46)"><tspan x="0" y="0">	</tspan></text>
  <text class="cls-1" transform="translate(1002.76 628.27) rotate(102.64)"><tspan x="0" y="0">	</tspan></text>
  <text class="cls-1" transform="translate(994.07 662.64) rotate(106.83)"><tspan x="0" y="0">	</tspan></text>
  <text class="cls-1" transform="translate(982.89 696.28) rotate(111.03)"><tspan x="0" y="0">	</tspan></text>
  <text class="cls-1" transform="translate(970.07 729.05) rotate(117.84)"><tspan x="0" y="0">W</tspan></text>
  <text class="cls-1" transform="translate(944.29 776.34) rotate(121.5)"><tspan x="0" y="0">i</tspan></text>
  <text class="cls-1" transform="translate(939.74 783.89) rotate(123.04)"><tspan x="0" y="0">ll</tspan></text>
  <text class="cls-1" transform="translate(930.26 798.37) rotate(124.57)"><tspan x="0" y="0"> </tspan></text>
  <text class="cls-1" transform="translate(925.69 805.88) rotate(127.71)"><tspan x="0" y="0">Y</tspan></text>
  <text class="cls-1" transform="translate(897.94 841.03) rotate(131.11)"><tspan x="0" y="0">o</tspan></text>
  <text class="cls-1" transform="translate(888.99 851.32) rotate(132.85)"><tspan x="0" y="0">u</tspan></text>
  <text class="cls-1" transform="translate(877.97 863.15) rotate(134.31)"><tspan x="0" y="0"> </tspan></text>
  <text class="cls-1" transform="translate(872.26 869.83) rotate(137.63)"><tspan x="0" y="0">B</tspan></text>
  <text class="cls-1" transform="translate(836.41 901.79) rotate(141.09)"><tspan x="0" y="0">e</tspan></text>
  <text class="cls-1" transform="translate(827.38 909.07) rotate(142.29)"><tspan x="0" y="0"> </tspan></text>
  <text class="cls-1" transform="translate(820.44 914.62) rotate(144.31)"><tspan x="0" y="0">m</tspan></text>
  <text class="cls-1" transform="translate(799.58 929.49) rotate(146.72)"><tspan x="0" y="0">y</tspan></text>
  <text class="cls-1" transform="translate(786.54 938) rotate(148.16)"><tspan x="0" y="0"> </tspan></text>
  <text class="cls-1" transform="translate(779.26 942.94) rotate(150.91)"><tspan x="0" y="0">V</tspan></text>
  <text class="cls-1" transform="translate(745.88 961.19) rotate(154.13)"><tspan x="0" y="0">a</tspan></text>
  <text class="cls-1" transform="translate(730.7 968.49) rotate(155.62)"><tspan x="0" y="0">l</tspan></text>
  <text class="cls-1" transform="translate(723.01 972) rotate(156.8)"><tspan x="0" y="0">e</tspan></text>
  <text class="cls-1" transform="translate(712.41 976.59) rotate(158.49)"><tspan x="0" y="0">n</tspan></text>
  <text class="cls-1" transform="translate(696.46 982.82) rotate(160.06)"><tspan x="0" y="0">t</tspan></text>
  <text class="cls-1" transform="translate(687.67 986.01) rotate(161.13)"><tspan x="0" y="0">i</tspan></text>
  <text class="cls-1" transform="translate(679.33 988.92) rotate(162.67)"><tspan x="0" y="0">n</tspan></text>
  <text class="cls-1" transform="translate(662.97 993.98) rotate(164.36)"><tspan x="0" y="0">e</tspan></text>
  <text class="cls-1" transform="translate(651.86 997.12) rotate(165.92)"><tspan x="0" y="0">?</tspan></text>
  <text class="cls-1" transform="translate(637.48 1000.69) rotate(167.33)"><tspan x="0" y="0">	</tspan></text>
  <text class="cls-1" transform="translate(620.77 1004.31) rotate(169.35)"><tspan x="0" y="0">	</tspan></text>
  <text class="cls-1" transform="translate(585.74 1009.92) rotate(173.52)"><tspan x="0" y="0">	</tspan></text>
  <text class="cls-1" transform="translate(550.41 1012.98) rotate(177.65)"><tspan x="0" y="0">	</tspan></text>
  <text class="cls-1" transform="translate(514.96 1013.49) rotate(-178.26)"><tspan x="0" y="0">	</tspan></text>
  <text class="cls-1" transform="translate(479.8 1012.23) rotate(-171.52)"><tspan x="0" y="0">W</tspan></text>
  <text class="cls-1" transform="translate(426.65 1003.59) rotate(-167.85)"><tspan x="0" y="0">i</tspan></text>
  <text class="cls-1" transform="translate(418.01 1001.79) rotate(-166.3)"><tspan x="0" y="0">ll</tspan></text>
  <text class="cls-1" transform="translate(401.2 997.64) rotate(-164.75)"><tspan x="0" y="0"> </tspan></text>
  <text class="cls-1" transform="translate(392.61 995.82) rotate(-161.58)"><tspan x="0" y="0">Y</tspan></text>
  <text class="cls-1" transform="translate(350.26 981.24) rotate(-158.14)"><tspan x="0" y="0">o</tspan></text>
  <text class="cls-1" transform="translate(337.6 976.18) rotate(-156.38)"><tspan x="0" y="0">u</tspan></text>
  <text class="cls-1" transform="translate(322.81 969.66) rotate(-154.9)"><tspan x="0" y="0"> </tspan></text>
  <text class="cls-1" transform="translate(314.63 966.48) rotate(-151.55)"><tspan x="0" y="0">B</tspan></text>
  <text class="cls-1" transform="translate(272.66 943.12) rotate(-148.07)"><tspan x="0" y="0">e</tspan></text>
  <text class="cls-1" transform="translate(262.82 936.98) rotate(-146.86)"><tspan x="0" y="0"> </tspan></text>
  <text class="cls-1" transform="translate(255.3 932.25) rotate(-144.84)"><tspan x="0" y="0">m</tspan></text>
  <text class="cls-1" transform="translate(234.42 917.41) rotate(-142.43)"><tspan x="0" y="0">y</tspan></text>
  <text class="cls-1" transform="translate(222.11 907.9) rotate(-141)"><tspan x="0" y="0"> </tspan></text>
  <text class="cls-1" transform="translate(215.03 902.63) rotate(-138.26)"><tspan x="0" y="0">V</tspan></text>
  <text class="cls-1" transform="translate(186.83 877.08) rotate(-135.07)"><tspan x="0" y="0">a</tspan></text>
  <text class="cls-1" transform="translate(174.95 865.16) rotate(-133.6)"><tspan x="0" y="0">l</tspan></text>
  <text class="cls-1" transform="translate(169.09 859.03) rotate(-132.43)"><tspan x="0" y="0">e</tspan></text>
  <text class="cls-1" transform="translate(161.28 850.55) rotate(-130.76)"><tspan x="0" y="0">n</tspan></text>
  <text class="cls-1" transform="translate(150.14 837.55) rotate(-129.22)"><tspan x="0" y="0">t</tspan></text>
  <text class="cls-1" transform="translate(144.21 830.28) rotate(-128.15)"><tspan x="0" y="0">i</tspan></text>
  <text class="cls-1" transform="translate(138.71 823.37) rotate(-126.63)"><tspan x="0" y="0">n</tspan></text>
  <text class="cls-1" transform="translate(128.53 809.63) rotate(-124.96)"><tspan x="0" y="0">e</tspan></text>
  <text class="cls-1" transform="translate(121.9 800.18) rotate(-123.41)"><tspan x="0" y="0">?</tspan></text>
  <text class="cls-1" transform="translate(113.76 787.78) rotate(-122.02)"><tspan x="0" y="0">	</tspan></text>
  <text class="cls-1" transform="translate(104.81 773.2) rotate(-120.01)"><tspan x="0" y="0">	</tspan></text>
  <text class="cls-1" transform="translate(87.92 742.04) rotate(-115.84)"><tspan x="0" y="0">	</tspan></text>
  <text class="cls-1" transform="translate(73.33 709.7) rotate(-111.65)"><tspan x="0" y="0">	</tspan></text>
  <text class="cls-1" transform="translate(61.15 676.43) rotate(-107.45)"><tspan x="0" y="0">	</tspan></text>
  <text class="cls-1" transform="translate(50.8 642.81) rotate(-100.63)"><tspan x="0" y="0">W</tspan></text>
  <text class="cls-1" transform="translate(41.56 589.74) rotate(-96.96)"><tspan x="0" y="0">i</tspan></text>
  <text class="cls-1" transform="translate(40.43 581) rotate(-95.43)"><tspan x="0" y="0">ll</tspan></text>
  <text class="cls-1" transform="translate(38.85 563.75) rotate(-93.9)"><tspan x="0" y="0"> </tspan></text>
  <text class="cls-1" transform="translate(37.8 555.02) rotate(-90.93)"><tspan x="0" y="0">Y</tspan></text>
  <text class="cls-1" transform="translate(37.57 510.24) rotate(-87.44)"><tspan x="0" y="0">o</tspan></text>
  <text class="cls-1" transform="translate(38.16 496.62) rotate(-85.71)"><tspan x="0" y="0">u</tspan></text>
  <text class="cls-1" transform="translate(39.41 480.49) rotate(-84.24)"><tspan x="0" y="0"> </tspan></text>
  <text class="cls-1" transform="translate(39.71 471.73) rotate(-80.91)"><tspan x="0" y="0">B</tspan></text>
  <text class="cls-1" transform="translate(47.84 424.38) rotate(-77.41)"><tspan x="0" y="0">e</tspan></text>
  <text class="cls-1" transform="translate(50.37 413.07) rotate(-76.2)"><tspan x="0" y="0"> </tspan></text>
  <text class="cls-1" transform="translate(52.34 404.42) rotate(-74.16)"><tspan x="0" y="0">m</tspan></text>
  <text class="cls-1" transform="translate(59.44 379.79) rotate(-71.72)"><tspan x="0" y="0">y</tspan></text>
  <text class="cls-1" transform="translate(64.35 365.04) rotate(-70.28)"><tspan x="0" y="0"> </tspan></text>
  <text class="cls-1" transform="translate(66.98 356.62) rotate(-67.5)"><tspan x="0" y="0">V</tspan></text>
  <text class="cls-1" transform="translate(81.81 321.59) rotate(-64.28)"><tspan x="0" y="0">a</tspan></text>
  <text class="cls-1" transform="translate(89.15 306.46) rotate(-62.79)"><tspan x="0" y="0">l</tspan></text>
  <text class="cls-1" transform="translate(93.01 298.91) rotate(-61.61)"><tspan x="0" y="0">e</tspan></text>
  <text class="cls-1" transform="translate(98.46 288.74) rotate(-59.92)"><tspan x="0" y="0">n</tspan></text>
  <text class="cls-1" transform="translate(107.1 273.92) rotate(-58.37)"><tspan x="0" y="0">t</tspan></text>
  <text class="cls-1" transform="translate(112 265.97) rotate(-57.3)"><tspan x="0" y="0">i</tspan></text>
  <text class="cls-1" transform="translate(116.72 258.5) rotate(-55.78)"><tspan x="0" y="0">n</tspan></text>
  <text class="cls-1" transform="translate(126.38 244.37) rotate(-54.1)"><tspan x="0" y="0">e</tspan></text>
  <text class="cls-1" transform="translate(133.14 234.98) rotate(-52.56)"><tspan x="0" y="0">?</tspan></text>
</svg>